<svg xmlns="http://www.w3.org/2000/svg" xmlns:xlink="http://www.w3.org/1999/xlink" viewBox="0 0 800 739" width="800" height="739">
  <rect width="100%" height="100%" fill="#ffffff"/>
  <line x1="477.7" y1="340.5" x2="429.4" y2="363.9" stroke="#848484" stroke-width="2.9" stroke-linecap="round"/>
  <line x1="392.6" y1="409.6" x2="429.4" y2="363.9" stroke="#828282" stroke-width="2.9" stroke-linecap="round"/>
  <line x1="118.6" y1="303.4" x2="179.5" y2="299.2" stroke="#898989" stroke-width="2.9" stroke-linecap="round"/>
  <line x1="126.3" y1="308.7" x2="172.7" y2="305.5" stroke="#898989" stroke-width="2.9" stroke-linecap="round" stroke-dasharray="2.9,5.8"/>
  <line x1="118.6" y1="303.4" x2="85.3" y2="316.4" stroke="#7b7b7b" stroke-width="2.9" stroke-linecap="round"/>
  <line x1="114.0" y1="311.5" x2="94.1" y2="319.2" stroke="#7b7b7b" stroke-width="2.9" stroke-linecap="round" stroke-dasharray="2.9,5.8"/>
  <line x1="179.5" y1="299.2" x2="206.8" y2="306.9" stroke="#767676" stroke-width="2.9" stroke-linecap="round"/>
  <line x1="183.4" y1="306.3" x2="199.8" y2="310.9" stroke="#767676" stroke-width="2.9" stroke-linecap="round" stroke-dasharray="2.9,5.8"/>
  <line x1="690.7" y1="595.8" x2="712.6" y2="560.4" stroke="#6e6e6e" stroke-width="2.9" stroke-linecap="round"/>
  <line x1="429.4" y1="363.9" x2="389.3" y2="313.3" stroke="#727272" stroke-width="2.9" stroke-linecap="round"/>
  <line x1="429.4" y1="363.9" x2="458.5" y2="394.6" stroke="#696969" stroke-width="2.9" stroke-linecap="round"/>
  <line x1="85.3" y1="316.4" x2="112.6" y2="324.2" stroke="#5e5e5e" stroke-width="2.9" stroke-linecap="round"/>
  <line x1="92.4" y1="312.3" x2="108.8" y2="317.0" stroke="#5e5e5e" stroke-width="2.9" stroke-linecap="round" stroke-dasharray="2.9,5.8"/>
  <line x1="206.8" y1="306.9" x2="173.6" y2="318.4" stroke="#5a5a5a" stroke-width="2.9" stroke-linecap="round"/>
  <line x1="198.3" y1="303.7" x2="178.4" y2="310.6" stroke="#5a5a5a" stroke-width="2.9" stroke-linecap="round" stroke-dasharray="2.9,5.8"/>
  <text x="718.3" y="551.3" font-family="Helvetica,Arial,sans-serif" font-size="17.3px" font-weight="bold" text-anchor="middle" dominant-baseline="central" fill="#ffb6b6">O</text>
  <line x1="711.0" y1="543.3" x2="684.6" y2="514.2" stroke="#5d5d5d" stroke-width="2.9" stroke-linecap="round"/>
  <line x1="458.5" y1="394.6" x2="504.6" y2="355.6" stroke="#525252" stroke-width="2.9" stroke-linecap="round"/>
  <line x1="458.5" y1="394.6" x2="424.2" y2="410.3" stroke="#505050" stroke-width="2.9" stroke-linecap="round"/>
  <line x1="684.6" y1="514.2" x2="623.0" y2="516.2" stroke="#545454" stroke-width="2.9" stroke-linecap="round"/>
  <line x1="677.2" y1="508.7" x2="630.1" y2="510.2" stroke="#545454" stroke-width="2.9" stroke-linecap="round" stroke-dasharray="2.9,5.8"/>
  <line x1="684.6" y1="514.2" x2="714.5" y2="471.5" stroke="#4d4d4d" stroke-width="2.9" stroke-linecap="round"/>
  <line x1="684.0" y1="504.9" x2="705.5" y2="474.2" stroke="#4d4d4d" stroke-width="2.9" stroke-linecap="round" stroke-dasharray="2.9,5.8"/>
  <line x1="623.0" y1="516.2" x2="592.0" y2="475.4" stroke="#4c4c4c" stroke-width="2.9" stroke-linecap="round"/>
  <line x1="623.2" y1="506.9" x2="601.1" y2="477.7" stroke="#4c4c4c" stroke-width="2.9" stroke-linecap="round" stroke-dasharray="2.9,5.8"/>
  <line x1="112.6" y1="324.2" x2="173.6" y2="318.4" stroke="#4e4e4e" stroke-width="2.9" stroke-linecap="round"/>
  <line x1="119.3" y1="317.7" x2="165.8" y2="313.3" stroke="#4e4e4e" stroke-width="2.9" stroke-linecap="round" stroke-dasharray="2.9,5.8"/>
  <line x1="609.4" y1="121.3" x2="572.7" y2="135.0" stroke="#424242" stroke-width="2.9" stroke-linecap="round"/>
  <line x1="173.6" y1="318.4" x2="203.7" y2="333.4" stroke="#404040" stroke-width="2.9" stroke-linecap="round"/>
  <text x="436.9" y="529.7" font-family="Helvetica,Arial,sans-serif" font-size="17.3px" font-weight="bold" text-anchor="middle" dominant-baseline="central" fill="#ffff9f">S</text>
  <line x1="428.5" y1="518.6" x2="406.5" y2="471.3" stroke="#454545" stroke-width="2.9" stroke-linecap="round"/>
  <line x1="433.8" y1="516.2" x2="411.8" y2="468.8" stroke="#454545" stroke-width="2.9" stroke-linecap="round"/>
  <line x1="504.6" y1="355.6" x2="512.4" y2="371.4" stroke="#3d3d3d" stroke-width="2.9" stroke-linecap="round"/>
  <line x1="251.7" y1="487.4" x2="250.6" y2="427.1" stroke="#474747" stroke-width="2.9" stroke-linecap="round"/>
  <line x1="245.7" y1="480.3" x2="244.9" y2="434.5" stroke="#474747" stroke-width="2.9" stroke-linecap="round" stroke-dasharray="2.9,5.8"/>
  <line x1="251.7" y1="487.4" x2="209.2" y2="523.6" stroke="#434343" stroke-width="2.9" stroke-linecap="round"/>
  <line x1="242.3" y1="487.7" x2="211.0" y2="514.4" stroke="#434343" stroke-width="2.9" stroke-linecap="round" stroke-dasharray="2.9,5.8"/>
  <text x="415.1" y="414.5" font-family="Helvetica,Arial,sans-serif" font-size="17.3px" font-weight="bold" text-anchor="middle" dominant-baseline="central" fill="#95a5fb">N</text>
  <line x1="413.8" y1="427.0" x2="409.1" y2="470.1" stroke="#414141" stroke-width="2.9" stroke-linecap="round"/>
  <line x1="410.6" y1="404.9" x2="403.7" y2="390.0" stroke="#404040" stroke-width="2.9" stroke-linecap="round"/>
  <line x1="250.6" y1="427.1" x2="208.0" y2="401.3" stroke="#3d3d3d" stroke-width="2.9" stroke-linecap="round"/>
  <line x1="241.3" y1="428.3" x2="211.2" y2="410.1" stroke="#3d3d3d" stroke-width="2.9" stroke-linecap="round" stroke-dasharray="2.9,5.8"/>
  <line x1="714.5" y1="471.5" x2="683.3" y2="431.1" stroke="#3e3e3e" stroke-width="2.9" stroke-linecap="round"/>
  <line x1="705.4" y1="469.3" x2="683.2" y2="440.4" stroke="#3e3e3e" stroke-width="2.9" stroke-linecap="round" stroke-dasharray="2.9,5.8"/>
  <line x1="269.1" y1="147.5" x2="242.9" y2="202.4" stroke="#434343" stroke-width="2.9" stroke-linecap="round"/>
  <line x1="271.2" y1="156.5" x2="251.3" y2="198.3" stroke="#434343" stroke-width="2.9" stroke-linecap="round" stroke-dasharray="2.9,5.8"/>
  <line x1="269.1" y1="147.5" x2="328.7" y2="138.3" stroke="#424242" stroke-width="2.9" stroke-linecap="round"/>
  <line x1="277.2" y1="152.1" x2="322.4" y2="145.2" stroke="#424242" stroke-width="2.9" stroke-linecap="round" stroke-dasharray="2.9,5.8"/>
  <line x1="592.0" y1="475.4" x2="621.6" y2="432.1" stroke="#3d3d3d" stroke-width="2.9" stroke-linecap="round"/>
  <line x1="601.0" y1="472.7" x2="622.3" y2="441.4" stroke="#3d3d3d" stroke-width="2.9" stroke-linecap="round" stroke-dasharray="2.9,5.8"/>
  <line x1="242.9" y1="202.4" x2="277.5" y2="248.0" stroke="#3c3c3c" stroke-width="2.9" stroke-linecap="round"/>
  <line x1="251.9" y1="204.6" x2="277.8" y2="238.7" stroke="#3c3c3c" stroke-width="2.9" stroke-linecap="round" stroke-dasharray="2.9,5.8"/>
  <line x1="328.7" y1="138.3" x2="363.4" y2="183.9" stroke="#3b3b3b" stroke-width="2.9" stroke-linecap="round"/>
  <line x1="328.5" y1="147.6" x2="354.4" y2="181.6" stroke="#3b3b3b" stroke-width="2.9" stroke-linecap="round" stroke-dasharray="2.9,5.8"/>
  <line x1="209.2" y1="523.6" x2="166.1" y2="498.3" stroke="#363636" stroke-width="2.9" stroke-linecap="round"/>
  <line x1="205.9" y1="514.9" x2="175.3" y2="497.0" stroke="#363636" stroke-width="2.9" stroke-linecap="round" stroke-dasharray="2.9,5.8"/>
  <line x1="409.1" y1="470.1" x2="383.8" y2="472.1" stroke="#333333" stroke-width="2.9" stroke-linecap="round"/>
  <text x="400.0" y="382.2" font-family="Helvetica,Arial,sans-serif" font-size="17.3px" font-weight="bold" text-anchor="middle" dominant-baseline="central" fill="#ffffff">H</text>
  <line x1="277.5" y1="248.0" x2="337.9" y2="238.9" stroke="#353535" stroke-width="2.9" stroke-linecap="round"/>
  <line x1="285.6" y1="252.7" x2="331.6" y2="245.7" stroke="#353535" stroke-width="2.9" stroke-linecap="round" stroke-dasharray="2.9,5.8"/>
  <line x1="277.5" y1="248.0" x2="265.9" y2="294.1" stroke="#353535" stroke-width="2.9" stroke-linecap="round"/>
  <line x1="281.4" y1="256.5" x2="273.4" y2="288.5" stroke="#353535" stroke-width="2.9" stroke-linecap="round" stroke-dasharray="2.9,5.8"/>
  <line x1="572.7" y1="135.0" x2="540.9" y2="187.6" stroke="#363636" stroke-width="2.9" stroke-linecap="round"/>
  <line x1="564.0" y1="138.2" x2="539.7" y2="178.4" stroke="#363636" stroke-width="2.9" stroke-linecap="round" stroke-dasharray="2.9,5.8"/>
  <line x1="572.7" y1="135.0" x2="571.3" y2="95.8" stroke="#2e2e2e" stroke-width="2.9" stroke-linecap="round"/>
  <line x1="566.7" y1="127.9" x2="565.8" y2="103.3" stroke="#2e2e2e" stroke-width="2.9" stroke-linecap="round" stroke-dasharray="2.9,5.8"/>
  <line x1="683.3" y1="431.1" x2="621.6" y2="432.1" stroke="#373737" stroke-width="2.9" stroke-linecap="round"/>
  <line x1="676.1" y1="437.0" x2="628.9" y2="437.8" stroke="#373737" stroke-width="2.9" stroke-linecap="round" stroke-dasharray="2.9,5.8"/>
  <line x1="621.6" y1="432.1" x2="587.5" y2="394.1" stroke="#2e2e2e" stroke-width="2.9" stroke-linecap="round"/>
  <line x1="363.4" y1="183.9" x2="337.9" y2="238.9" stroke="#343434" stroke-width="2.9" stroke-linecap="round"/>
  <line x1="355.1" y1="188.0" x2="335.7" y2="229.8" stroke="#343434" stroke-width="2.9" stroke-linecap="round" stroke-dasharray="2.9,5.8"/>
  <line x1="208.0" y1="401.3" x2="203.7" y2="333.4" stroke="#343434" stroke-width="2.9" stroke-linecap="round"/>
  <line x1="208.0" y1="401.3" x2="165.4" y2="437.6" stroke="#313131" stroke-width="2.9" stroke-linecap="round"/>
  <line x1="206.2" y1="410.5" x2="174.8" y2="437.3" stroke="#313131" stroke-width="2.9" stroke-linecap="round" stroke-dasharray="2.9,5.8"/>
  <line x1="540.9" y1="187.6" x2="509.8" y2="202.1" stroke="#2c2c2c" stroke-width="2.9" stroke-linecap="round"/>
  <line x1="532.2" y1="185.2" x2="513.6" y2="193.9" stroke="#2c2c2c" stroke-width="2.9" stroke-linecap="round" stroke-dasharray="2.9,5.8"/>
  <line x1="203.7" y1="333.4" x2="250.6" y2="312.2" stroke="#333333" stroke-width="2.9" stroke-linecap="round"/>
  <line x1="203.7" y1="333.4" x2="170.6" y2="312.5" stroke="#292929" stroke-width="2.9" stroke-linecap="round"/>
  <line x1="337.9" y1="238.9" x2="360.4" y2="293.4" stroke="#2e2e2e" stroke-width="2.9" stroke-linecap="round"/>
  <line x1="335.3" y1="247.8" x2="352.2" y2="288.9" stroke="#2e2e2e" stroke-width="2.9" stroke-linecap="round" stroke-dasharray="2.9,5.8"/>
  <text x="262.7" y="306.7" font-family="Helvetica,Arial,sans-serif" font-size="17.3px" font-weight="bold" text-anchor="middle" dominant-baseline="central" fill="#798dfa">N</text>
  <line x1="273.1" y1="312.4" x2="310.5" y2="332.7" stroke="#2d2d2d" stroke-width="2.9" stroke-linecap="round"/>
  <line x1="282.3" y1="310.7" x2="306.9" y2="324.1" stroke="#2d2d2d" stroke-width="2.9" stroke-linecap="round" stroke-dasharray="2.9,5.8"/>
  <line x1="652.7" y1="293.2" x2="679.7" y2="239.2" stroke="#303030" stroke-width="2.9" stroke-linecap="round"/>
  <line x1="650.8" y1="284.0" x2="671.2" y2="243.1" stroke="#303030" stroke-width="2.9" stroke-linecap="round" stroke-dasharray="2.9,5.8"/>
  <line x1="652.7" y1="293.2" x2="619.3" y2="317.7" stroke="#292929" stroke-width="2.9" stroke-linecap="round"/>
  <line x1="643.4" y1="292.8" x2="621.7" y2="308.7" stroke="#292929" stroke-width="2.9" stroke-linecap="round" stroke-dasharray="2.9,5.8"/>
  <text x="514.4" y="375.6" font-family="Helvetica,Arial,sans-serif" font-size="17.3px" font-weight="bold" text-anchor="middle" dominant-baseline="central" fill="#778cfa">N</text>
  <line x1="504.7" y1="371.4" x2="489.5" y2="364.9" stroke="#2c2c2c" stroke-width="2.9" stroke-linecap="round"/>
  <line x1="526.7" y1="374.3" x2="565.2" y2="379.6" stroke="#2b2b2b" stroke-width="2.9" stroke-linecap="round"/>
  <line x1="525.9" y1="380.1" x2="564.4" y2="385.4" stroke="#2b2b2b" stroke-width="2.9" stroke-linecap="round"/>
  <line x1="166.1" y1="498.3" x2="165.4" y2="437.6" stroke="#2e2e2e" stroke-width="2.9" stroke-linecap="round"/>
  <line x1="171.8" y1="491.0" x2="171.3" y2="444.8" stroke="#2e2e2e" stroke-width="2.9" stroke-linecap="round" stroke-dasharray="2.9,5.8"/>
  <line x1="679.7" y1="239.2" x2="673.5" y2="207.9" stroke="#262626" stroke-width="2.9" stroke-linecap="round"/>
  <line x1="672.7" y1="234.0" x2="669.0" y2="215.3" stroke="#262626" stroke-width="2.9" stroke-linecap="round" stroke-dasharray="2.9,5.8"/>
  <text x="376.5" y="472.7" font-family="Helvetica,Arial,sans-serif" font-size="17.3px" font-weight="bold" text-anchor="middle" dominant-baseline="central" fill="#6c83fa">N</text>
  <line x1="370.2" y1="461.5" x2="359.9" y2="443.4" stroke="#282828" stroke-width="2.9" stroke-linecap="round"/>
  <line x1="372.6" y1="483.2" x2="358.3" y2="520.8" stroke="#242424" stroke-width="2.9" stroke-linecap="round"/>
  <line x1="360.4" y1="293.4" x2="310.5" y2="332.7" stroke="#292929" stroke-width="2.9" stroke-linecap="round"/>
  <line x1="351.1" y1="293.4" x2="312.6" y2="323.6" stroke="#292929" stroke-width="2.9" stroke-linecap="round" stroke-dasharray="2.9,5.8"/>
  <line x1="361.3" y1="290.7" x2="402.2" y2="303.8" stroke="#282828" stroke-width="2.9" stroke-linecap="round"/>
  <line x1="359.5" y1="296.2" x2="400.4" y2="309.4" stroke="#282828" stroke-width="2.9" stroke-linecap="round"/>
  <line x1="313.4" y1="332.7" x2="312.7" y2="370.0" stroke="#242424" stroke-width="2.9" stroke-linecap="round"/>
  <line x1="307.6" y1="332.6" x2="306.9" y2="369.8" stroke="#242424" stroke-width="2.9" stroke-linecap="round"/>
  <text x="481.5" y="361.5" font-family="Helvetica,Arial,sans-serif" font-size="17.3px" font-weight="bold" text-anchor="middle" dominant-baseline="central" fill="#ffffff">H</text>
  <text x="413.2" y="310.4" font-family="Helvetica,Arial,sans-serif" font-size="17.3px" font-weight="bold" text-anchor="middle" dominant-baseline="central" fill="#ff4d4d">O</text>
  <text x="578.9" y="384.5" font-family="Helvetica,Arial,sans-serif" font-size="17.3px" font-weight="bold" text-anchor="middle" dominant-baseline="central" fill="#ffa143">P</text>
  <line x1="587.0" y1="371.1" x2="619.3" y2="317.7" stroke="#242424" stroke-width="2.9" stroke-linecap="round"/>
  <line x1="575.5" y1="391.7" x2="562.0" y2="420.3" stroke="#1b1b1b" stroke-width="2.9" stroke-linecap="round"/>
  <text x="354.6" y="434.2" font-family="Helvetica,Arial,sans-serif" font-size="17.3px" font-weight="bold" text-anchor="middle" dominant-baseline="central" fill="#ffffff">H</text>
  <line x1="571.3" y1="95.8" x2="540.1" y2="109.0" stroke="#1d1d1d" stroke-width="2.9" stroke-linecap="round"/>
  <line x1="567.4" y1="103.8" x2="548.6" y2="111.7" stroke="#1d1d1d" stroke-width="2.9" stroke-linecap="round" stroke-dasharray="2.9,5.8"/>
  <line x1="509.8" y1="202.1" x2="510.1" y2="162.3" stroke="#1c1c1c" stroke-width="2.9" stroke-linecap="round"/>
  <line x1="515.7" y1="194.9" x2="515.9" y2="169.7" stroke="#1c1c1c" stroke-width="2.9" stroke-linecap="round" stroke-dasharray="2.9,5.8"/>
  <line x1="619.3" y1="317.7" x2="612.6" y2="286.0" stroke="#1a1a1a" stroke-width="2.9" stroke-linecap="round"/>
  <line x1="623.7" y1="310.2" x2="619.7" y2="291.1" stroke="#1a1a1a" stroke-width="2.9" stroke-linecap="round" stroke-dasharray="2.9,5.8"/>
  <line x1="131.1" y1="265.4" x2="170.6" y2="312.5" stroke="#202020" stroke-width="2.9" stroke-linecap="round"/>
  <line x1="131.3" y1="274.7" x2="161.5" y2="310.6" stroke="#202020" stroke-width="2.9" stroke-linecap="round" stroke-dasharray="2.9,5.8"/>
  <line x1="131.1" y1="265.4" x2="105.3" y2="245.5" stroke="#191919" stroke-width="2.9" stroke-linecap="round"/>
  <line x1="122.3" y1="266.0" x2="106.9" y2="254.1" stroke="#191919" stroke-width="2.9" stroke-linecap="round" stroke-dasharray="2.9,5.8"/>
  <line x1="170.6" y1="312.5" x2="185.1" y2="337.9" stroke="#181818" stroke-width="2.9" stroke-linecap="round"/>
  <line x1="168.5" y1="320.5" x2="177.2" y2="335.7" stroke="#181818" stroke-width="2.9" stroke-linecap="round" stroke-dasharray="2.9,5.8"/>
  <text x="309.6" y="381.2" font-family="Helvetica,Arial,sans-serif" font-size="17.3px" font-weight="bold" text-anchor="middle" dominant-baseline="central" fill="#ff4343">O</text>
  <line x1="358.3" y1="520.8" x2="393.0" y2="570.1" stroke="#1d1d1d" stroke-width="2.9" stroke-linecap="round"/>
  <line x1="357.8" y1="530.1" x2="384.1" y2="567.5" stroke="#1d1d1d" stroke-width="2.9" stroke-linecap="round" stroke-dasharray="2.9,5.8"/>
  <line x1="358.3" y1="520.8" x2="302.6" y2="516.0" stroke="#1b1b1b" stroke-width="2.9" stroke-linecap="round"/>
  <line x1="350.6" y1="526.0" x2="309.4" y2="522.4" stroke="#1b1b1b" stroke-width="2.9" stroke-linecap="round" stroke-dasharray="2.9,5.8"/>
  <line x1="673.5" y1="207.9" x2="694.9" y2="167.0" stroke="#1d1d1d" stroke-width="2.9" stroke-linecap="round"/>
  <line x1="673.5" y1="207.9" x2="639.7" y2="231.6" stroke="#171717" stroke-width="2.9" stroke-linecap="round"/>
  <line x1="670.9" y1="216.8" x2="649.0" y2="232.1" stroke="#171717" stroke-width="2.9" stroke-linecap="round" stroke-dasharray="2.9,5.8"/>
  <text x="700.8" y="155.8" font-family="Helvetica,Arial,sans-serif" font-size="17.3px" font-weight="bold" text-anchor="middle" dominant-baseline="central" fill="#ff3d3d">O</text>
  <line x1="700.7" y1="149.4" x2="700.1" y2="124.5" stroke="#151515" stroke-width="2.9" stroke-linecap="round"/>
  <line x1="393.0" y1="570.1" x2="371.7" y2="613.5" stroke="#161616" stroke-width="2.9" stroke-linecap="round"/>
  <line x1="384.6" y1="574.0" x2="369.7" y2="604.4" stroke="#161616" stroke-width="2.9" stroke-linecap="round" stroke-dasharray="2.9,5.8"/>
  <text x="423.1" y="695.9" font-family="Helvetica,Arial,sans-serif" font-size="17.3px" font-weight="bold" text-anchor="middle" dominant-baseline="central" fill="#a4e571">F</text>
  <line x1="420.6" y1="689.5" x2="411.1" y2="664.9" stroke="#141414" stroke-width="2.9" stroke-linecap="round"/>
  <line x1="302.6" y1="516.0" x2="282.5" y2="559.7" stroke="#131313" stroke-width="2.9" stroke-linecap="round"/>
  <line x1="304.9" y1="525.0" x2="290.8" y2="555.6" stroke="#131313" stroke-width="2.9" stroke-linecap="round" stroke-dasharray="2.9,5.8"/>
  <line x1="540.1" y1="109.0" x2="510.1" y2="162.3" stroke="#161616" stroke-width="2.9" stroke-linecap="round"/>
  <line x1="541.6" y1="118.2" x2="518.8" y2="158.8" stroke="#161616" stroke-width="2.9" stroke-linecap="round" stroke-dasharray="2.9,5.8"/>
  <line x1="510.1" y1="162.3" x2="485.0" y2="178.6" stroke="#0e0e0e" stroke-width="2.9" stroke-linecap="round"/>
  <line x1="612.6" y1="286.0" x2="639.7" y2="231.6" stroke="#121212" stroke-width="2.9" stroke-linecap="round"/>
  <line x1="621.1" y1="282.1" x2="641.7" y2="240.7" stroke="#121212" stroke-width="2.9" stroke-linecap="round" stroke-dasharray="2.9,5.8"/>
  <line x1="562.0" y1="420.3" x2="509.3" y2="451.4" stroke="#121212" stroke-width="2.9" stroke-linecap="round"/>
  <line x1="558.7" y1="429.0" x2="518.5" y2="452.7" stroke="#121212" stroke-width="2.9" stroke-linecap="round" stroke-dasharray="2.9,5.8"/>
  <line x1="562.0" y1="420.3" x2="603.8" y2="422.6" stroke="#0d0d0d" stroke-width="2.9" stroke-linecap="round"/>
  <line x1="569.0" y1="426.5" x2="596.2" y2="428.0" stroke="#0d0d0d" stroke-width="2.9" stroke-linecap="round" stroke-dasharray="2.9,5.8"/>
  <line x1="105.3" y1="245.5" x2="119.0" y2="271.9" stroke="#0c0c0c" stroke-width="2.9" stroke-linecap="round"/>
  <line x1="113.2" y1="248.0" x2="121.4" y2="263.9" stroke="#0c0c0c" stroke-width="2.9" stroke-linecap="round" stroke-dasharray="2.9,5.8"/>
  <line x1="185.1" y1="337.9" x2="159.5" y2="318.0" stroke="#0c0c0c" stroke-width="2.9" stroke-linecap="round"/>
  <line x1="183.6" y1="329.3" x2="168.2" y2="317.4" stroke="#0c0c0c" stroke-width="2.9" stroke-linecap="round" stroke-dasharray="2.9,5.8"/>
  <line x1="371.7" y1="613.5" x2="411.1" y2="664.9" stroke="#101010" stroke-width="2.9" stroke-linecap="round"/>
  <line x1="371.7" y1="613.5" x2="316.7" y2="609.3" stroke="#0f0f0f" stroke-width="2.9" stroke-linecap="round"/>
  <line x1="364.9" y1="607.1" x2="324.4" y2="604.0" stroke="#0f0f0f" stroke-width="2.9" stroke-linecap="round" stroke-dasharray="2.9,5.8"/>
  <line x1="509.3" y1="451.4" x2="497.2" y2="483.4" stroke="#0c0c0c" stroke-width="2.9" stroke-linecap="round"/>
  <line x1="512.3" y1="459.9" x2="505.1" y2="479.1" stroke="#0c0c0c" stroke-width="2.9" stroke-linecap="round" stroke-dasharray="2.9,5.8"/>
  <text x="183.0" y="587.5" font-family="Helvetica,Arial,sans-serif" font-size="17.3px" font-weight="bold" text-anchor="middle" dominant-baseline="central" fill="#9ce363">F</text>
  <line x1="191.0" y1="580.9" x2="221.9" y2="555.0" stroke="#0c0c0c" stroke-width="2.9" stroke-linecap="round"/>
  <line x1="411.1" y1="664.9" x2="452.4" y2="650.8" stroke="#0c0c0c" stroke-width="2.9" stroke-linecap="round"/>
  <line x1="411.1" y1="664.9" x2="392.7" y2="694.2" stroke="#0b0b0b" stroke-width="2.9" stroke-linecap="round"/>
  <line x1="282.5" y1="559.7" x2="316.7" y2="609.3" stroke="#0d0d0d" stroke-width="2.9" stroke-linecap="round"/>
  <line x1="291.4" y1="562.4" x2="317.3" y2="599.9" stroke="#0d0d0d" stroke-width="2.9" stroke-linecap="round" stroke-dasharray="2.9,5.8"/>
  <line x1="282.5" y1="559.7" x2="221.9" y2="555.0" stroke="#0c0c0c" stroke-width="2.9" stroke-linecap="round"/>
  <line x1="428.2" y1="313.8" x2="392.8" y2="266.4" stroke="#0c0c0c" stroke-width="2.9" stroke-linecap="round"/>
  <line x1="250.0" y1="120.9" x2="255.3" y2="181.8" stroke="#0d0d0d" stroke-width="2.9" stroke-linecap="round"/>
  <line x1="256.4" y1="127.7" x2="260.5" y2="174.0" stroke="#0d0d0d" stroke-width="2.9" stroke-linecap="round" stroke-dasharray="2.9,5.8"/>
  <line x1="250.0" y1="120.9" x2="300.0" y2="84.9" stroke="#0c0c0c" stroke-width="2.9" stroke-linecap="round"/>
  <line x1="259.3" y1="121.4" x2="297.5" y2="93.9" stroke="#0c0c0c" stroke-width="2.9" stroke-linecap="round" stroke-dasharray="2.9,5.8"/>
  <line x1="255.3" y1="181.8" x2="311.4" y2="206.7" stroke="#0c0c0c" stroke-width="2.9" stroke-linecap="round"/>
  <line x1="264.3" y1="179.4" x2="307.1" y2="198.5" stroke="#0c0c0c" stroke-width="2.9" stroke-linecap="round" stroke-dasharray="2.9,5.8"/>
  <line x1="331.6" y1="266.4" x2="311.4" y2="206.7" stroke="#0c0c0c" stroke-width="2.9" stroke-linecap="round"/>
  <line x1="334.8" y1="257.6" x2="319.3" y2="211.8" stroke="#0c0c0c" stroke-width="2.9" stroke-linecap="round" stroke-dasharray="2.9,5.8"/>
  <line x1="331.6" y1="266.4" x2="392.8" y2="266.4" stroke="#0b0b0b" stroke-width="2.9" stroke-linecap="round"/>
  <line x1="338.9" y1="260.6" x2="385.5" y2="260.6" stroke="#0b0b0b" stroke-width="2.9" stroke-linecap="round" stroke-dasharray="2.9,5.8"/>
  <line x1="300.0" y1="84.9" x2="356.3" y2="108.6" stroke="#0b0b0b" stroke-width="2.9" stroke-linecap="round"/>
  <line x1="304.4" y1="93.1" x2="347.3" y2="111.2" stroke="#0b0b0b" stroke-width="2.9" stroke-linecap="round" stroke-dasharray="2.9,5.8"/>
  <line x1="311.4" y1="206.7" x2="361.3" y2="169.8" stroke="#0b0b0b" stroke-width="2.9" stroke-linecap="round"/>
  <line x1="313.8" y1="197.7" x2="352.0" y2="169.5" stroke="#0b0b0b" stroke-width="2.9" stroke-linecap="round" stroke-dasharray="2.9,5.8"/>
  <line x1="356.3" y1="108.6" x2="361.3" y2="169.8" stroke="#0b0b0b" stroke-width="2.9" stroke-linecap="round"/>
  <line x1="351.1" y1="116.4" x2="354.9" y2="163.0" stroke="#0b0b0b" stroke-width="2.9" stroke-linecap="round" stroke-dasharray="2.9,5.8"/>
  <line x1="361.3" y1="169.8" x2="400.3" y2="198.3" stroke="#0b0b0b" stroke-width="2.9" stroke-linecap="round"/>
  <line x1="363.7" y1="178.8" x2="391.0" y2="198.8" stroke="#0b0b0b" stroke-width="2.9" stroke-linecap="round" stroke-dasharray="2.9,5.8"/>
  <line x1="392.8" y1="266.4" x2="407.2" y2="219.0" stroke="#0b0b0b" stroke-width="2.9" stroke-linecap="round"/>
  <line x1="389.4" y1="257.7" x2="399.5" y2="224.3" stroke="#0b0b0b" stroke-width="2.9" stroke-linecap="round" stroke-dasharray="2.9,5.8"/>
  <text x="463.0" y="647.1" font-family="Helvetica,Arial,sans-serif" font-size="17.3px" font-weight="bold" text-anchor="middle" dominant-baseline="central" fill="#98e25d">F</text>
  <text x="411.1" y="206.2" font-family="Helvetica,Arial,sans-serif" font-size="17.3px" font-weight="bold" text-anchor="middle" dominant-baseline="central" fill="#3f5df8">N</text>
  <line x1="423.3" y1="201.9" x2="464.7" y2="187.5" stroke="#090909" stroke-width="2.9" stroke-linecap="round"/>
  <text x="202.0" y="499.9" font-family="Helvetica,Arial,sans-serif" font-size="17.3px" font-weight="bold" text-anchor="middle" dominant-baseline="central" fill="#97e25c">F</text>
  <line x1="206.1" y1="511.2" x2="221.9" y2="555.0" stroke="#090909" stroke-width="2.9" stroke-linecap="round"/>
  <line x1="221.9" y1="555.0" x2="221.0" y2="570.1" stroke="#050505" stroke-width="2.9" stroke-linecap="round"/>
  <line x1="603.8" y1="422.6" x2="592.1" y2="454.4" stroke="#050505" stroke-width="2.9" stroke-linecap="round"/>
  <line x1="596.0" y1="427.0" x2="589.0" y2="446.1" stroke="#050505" stroke-width="2.9" stroke-linecap="round" stroke-dasharray="2.9,5.8"/>
  <line x1="119.0" y1="271.9" x2="159.5" y2="318.0" stroke="#080808" stroke-width="2.9" stroke-linecap="round"/>
  <line x1="128.2" y1="273.5" x2="159.1" y2="308.7" stroke="#080808" stroke-width="2.9" stroke-linecap="round" stroke-dasharray="2.9,5.8"/>
  <text x="478.8" y="182.5" font-family="Helvetica,Arial,sans-serif" font-size="17.3px" font-weight="bold" text-anchor="middle" dominant-baseline="central" fill="#ffff3b">S</text>
  <line x1="489.0" y1="193.0" x2="506.9" y2="221.3" stroke="#060606" stroke-width="2.9" stroke-linecap="round"/>
  <line x1="484.0" y1="196.1" x2="502.0" y2="224.4" stroke="#060606" stroke-width="2.9" stroke-linecap="round"/>
  <line x1="474.6" y1="170.3" x2="471.6" y2="140.9" stroke="#050505" stroke-width="2.9" stroke-linecap="round"/>
  <line x1="480.4" y1="169.7" x2="477.4" y2="140.3" stroke="#050505" stroke-width="2.9" stroke-linecap="round"/>
  <text x="387.8" y="701.8" font-family="Helvetica,Arial,sans-serif" font-size="17.3px" font-weight="bold" text-anchor="middle" dominant-baseline="central" fill="#96e159">F</text>
  <line x1="497.2" y1="483.4" x2="538.7" y2="485.0" stroke="#040404" stroke-width="2.9" stroke-linecap="round"/>
  <line x1="504.7" y1="477.9" x2="531.6" y2="478.9" stroke="#040404" stroke-width="2.9" stroke-linecap="round" stroke-dasharray="2.9,5.8"/>
  <text x="510.9" y="232.8" font-family="Helvetica,Arial,sans-serif" font-size="17.3px" font-weight="bold" text-anchor="middle" dominant-baseline="central" fill="#ff1515">O</text>
  <text x="473.4" y="130.1" font-family="Helvetica,Arial,sans-serif" font-size="17.3px" font-weight="bold" text-anchor="middle" dominant-baseline="central" fill="#ff1212">O</text>
  <line x1="592.1" y1="454.4" x2="538.7" y2="485.0" stroke="#020202" stroke-width="2.9" stroke-linecap="round"/>
  <line x1="582.9" y1="453.0" x2="542.1" y2="476.4" stroke="#020202" stroke-width="2.9" stroke-linecap="round" stroke-dasharray="2.9,5.8"/>
  <text x="220.7" y="574.0" font-family="Helvetica,Arial,sans-serif" font-size="17.3px" font-weight="bold" text-anchor="middle" dominant-baseline="central" fill="#92e053">F</text>
  <line x1="538.7" y1="485.0" x2="532.8" y2="508.2" stroke="#000000" stroke-width="2.9" stroke-linecap="round"/>
  <text x="531.1" y="514.6" font-family="Helvetica,Arial,sans-serif" font-size="17.3px" font-weight="bold" text-anchor="middle" dominant-baseline="central" fill="#ff0d0d">O</text>
  <line x1="520.3" y1="521.1" x2="478.3" y2="546.5" stroke="#000000" stroke-width="2.9" stroke-linecap="round"/>
</svg>