<svg xmlns="http://www.w3.org/2000/svg" xmlns:xlink="http://www.w3.org/1999/xlink" viewBox="0 0 800 729" width="800" height="729">
  <rect width="100%" height="100%" fill="#ffffff"/>
  <text x="560.2" y="478.6" font-family="Helvetica,Arial,sans-serif" font-size="36.9px" font-weight="bold" text-anchor="middle" dominant-baseline="central" fill="#222222">N</text>
  <line x1="532.1" y1="475.3" x2="429.5" y2="463.3" stroke="#000000" stroke-width="6.2" stroke-linecap="round"/>
  <line x1="575.6" y1="455.2" x2="633.4" y2="367.3" stroke="#000000" stroke-width="6.2" stroke-linecap="round"/>
  <line x1="571.7" y1="503.9" x2="616.4" y2="601.9" stroke="#000000" stroke-width="6.2" stroke-linecap="round"/>
  <text x="575.7" y="245.6" font-family="Helvetica,Arial,sans-serif" font-size="36.9px" font-weight="bold" text-anchor="middle" dominant-baseline="central" fill="#222222">N</text>
  <line x1="547.7" y1="242.2" x2="442.3" y2="229.3" stroke="#000000" stroke-width="6.2" stroke-linecap="round"/>
  <line x1="587.8" y1="271.2" x2="633.4" y2="367.3" stroke="#000000" stroke-width="6.2" stroke-linecap="round"/>
  <line x1="592.6" y1="222.9" x2="657.9" y2="134.7" stroke="#000000" stroke-width="6.2" stroke-linecap="round"/>
  <line x1="433.9" y1="467.7" x2="362.6" y2="540.0" stroke="#000000" stroke-width="6.2" stroke-linecap="round"/>
  <line x1="425.1" y1="459.0" x2="353.8" y2="531.3" stroke="#000000" stroke-width="6.2" stroke-linecap="round" stroke-dasharray="6.2,12.4"/>
  <line x1="423.9" y1="466.0" x2="367.1" y2="348.4" stroke="#000000" stroke-width="6.2" stroke-linecap="round" stroke-dasharray="6.2,12.4"/>
  <line x1="435.1" y1="460.6" x2="378.2" y2="343.0" stroke="#000000" stroke-width="6.2" stroke-linecap="round"/>
  <text x="338.3" y="555.8" font-family="Helvetica,Arial,sans-serif" font-size="36.9px" font-weight="bold" text-anchor="middle" dominant-baseline="central" fill="#222222">N</text>
  <line x1="310.3" y1="548.4" x2="222.7" y2="503.4" stroke="#000000" stroke-width="6.2" stroke-linecap="round"/>
  <line x1="315.9" y1="537.4" x2="228.4" y2="492.4" stroke="#000000" stroke-width="6.2" stroke-linecap="round" stroke-dasharray="6.2,12.4"/>
  <line x1="372.6" y1="345.7" x2="442.3" y2="229.3" stroke="#000000" stroke-width="6.2" stroke-linecap="round"/>
  <line x1="373.8" y1="351.8" x2="272.0" y2="370.5" stroke="#000000" stroke-width="6.2" stroke-linecap="round" stroke-dasharray="6.2,12.4"/>
  <line x1="371.5" y1="339.6" x2="269.8" y2="358.3" stroke="#000000" stroke-width="6.2" stroke-linecap="round"/>
  <line x1="219.4" y1="497.1" x2="233.1" y2="396.7" stroke="#000000" stroke-width="6.2" stroke-linecap="round"/>
  <line x1="231.7" y1="498.7" x2="245.4" y2="398.4" stroke="#000000" stroke-width="6.2" stroke-linecap="round" stroke-dasharray="6.2,12.4"/>
  <line x1="436.6" y1="231.7" x2="402.8" y2="151.6" stroke="#000000" stroke-width="6.2" stroke-linecap="round"/>
  <line x1="448.0" y1="226.9" x2="414.2" y2="146.8" stroke="#000000" stroke-width="6.2" stroke-linecap="round"/>
  <text x="243.0" y="369.5" font-family="Helvetica,Arial,sans-serif" font-size="36.9px" font-weight="bold" text-anchor="middle" dominant-baseline="central" fill="#222222">N</text>
  <line x1="222.5" y1="350.0" x2="144.2" y2="275.7" stroke="#000000" stroke-width="6.2" stroke-linecap="round"/>
  <line x1="633.9" y1="361.1" x2="719.8" y2="367.8" stroke="#000000" stroke-width="6.2" stroke-linecap="round"/>
  <line x1="632.9" y1="373.5" x2="718.8" y2="380.1" stroke="#000000" stroke-width="6.2" stroke-linecap="round"/>
  <text x="398.0" y="124.3" font-family="Helvetica,Arial,sans-serif" font-size="36.9px" font-weight="bold" text-anchor="middle" dominant-baseline="central" fill="#222222">O</text>
  <text x="745.9" y="376.0" font-family="Helvetica,Arial,sans-serif" font-size="36.9px" font-weight="bold" text-anchor="middle" dominant-baseline="central" fill="#222222">O</text>
</svg>