<svg xmlns="http://www.w3.org/2000/svg" xmlns:xlink="http://www.w3.org/1999/xlink" viewBox="0 0 800 764" width="800" height="764">
  <rect width="100%" height="100%" fill="#ffffff"/>
  <defs>
    <g id="x0a0"><radialGradient id="x0g0" cx=".5" cy=".5" fx=".33" fy=".33" r=".66"><stop offset="0%" stop-color="#de9a73"/><stop offset="40%" stop-color="#e47b4f"/><stop offset="100%" stop-color="#973831"/></radialGradient><circle cx="0" cy="0" r="26.4" fill="url(#x0g0)" stroke="#333333" stroke-width="3.7"/></g>
    <g id="x0a1"><radialGradient id="x0g1" cx=".5" cy=".5" fx=".33" fy=".33" r=".66"><stop offset="0%" stop-color="#c2a1d1"/><stop offset="40%" stop-color="#a98cce"/><stop offset="100%" stop-color="#674995"/></radialGradient><circle cx="0" cy="0" r="26.8" fill="url(#x0g1)" stroke="#323232" stroke-width="3.7"/></g>
    <g id="x0a2"><radialGradient id="x0g2" cx=".5" cy=".5" fx=".33" fy=".33" r=".66"><stop offset="0%" stop-color="#f0ab56"/><stop offset="40%" stop-color="#ff9428"/><stop offset="100%" stop-color="#9e4628"/></radialGradient><circle cx="0" cy="0" r="23.2" fill="url(#x0g2)" stroke="#3a3a3a" stroke-width="3.7"/></g>
    <g id="x0a3"><radialGradient id="x0g3" cx=".5" cy=".5" fx=".33" fy=".33" r=".66"><stop offset="0%" stop-color="#ef5846"/><stop offset="40%" stop-color="#ff1515"/><stop offset="100%" stop-color="#960925"/></radialGradient><circle cx="0" cy="0" r="18.6" fill="url(#x0g3)" stroke="#0d0d0d" stroke-width="3.7"/></g>
    <g id="x0a4"><radialGradient id="x0g4" cx=".5" cy=".5" fx=".33" fy=".33" r=".66"><stop offset="0%" stop-color="#ef5443"/><stop offset="40%" stop-color="#ff1010"/><stop offset="100%" stop-color="#940420"/></radialGradient><circle cx="0" cy="0" r="18.6" fill="url(#x0g4)" stroke="#050505" stroke-width="3.7"/></g>
    <g id="x0a5"><radialGradient id="x0g5" cx=".5" cy=".5" fx=".33" fy=".33" r=".66"><stop offset="0%" stop-color="#86b5f1"/><stop offset="40%" stop-color="#677ef9"/><stop offset="100%" stop-color="#4657b7"/></radialGradient><circle cx="0" cy="0" r="19.5" fill="url(#x0g5)" stroke="#616161" stroke-width="3.7"/></g>
    <g id="x0a6"><radialGradient id="x0g6" cx=".5" cy=".5" fx=".33" fy=".33" r=".66"><stop offset="0%" stop-color="#8db9f1"/><stop offset="40%" stop-color="#6f85fa"/><stop offset="100%" stop-color="#505fbb"/></radialGradient><circle cx="0" cy="0" r="19.5" fill="url(#x0g6)" stroke="#6f6f6f" stroke-width="3.7"/></g>
    <g id="x0a7"><radialGradient id="x0g7" cx=".5" cy=".5" fx=".33" fy=".33" r=".66"><stop offset="0%" stop-color="#c5c5c5"/><stop offset="40%" stop-color="#bcbcbc"/><stop offset="100%" stop-color="#8b757a"/></radialGradient><circle cx="0" cy="0" r="20.7" fill="url(#x0g7)" stroke="#4f4f4f" stroke-width="3.7"/></g>
    <g id="x0a8"><radialGradient id="x0g8" cx=".5" cy=".5" fx=".33" fy=".33" r=".66"><stop offset="0%" stop-color="#c8c8c8"/><stop offset="40%" stop-color="#c0c0c0"/><stop offset="100%" stop-color="#917c81"/></radialGradient><circle cx="0" cy="0" r="20.7" fill="url(#x0g8)" stroke="#5e5e5e" stroke-width="3.7"/></g>
    <g id="x0a9"><radialGradient id="x0g9" cx=".5" cy=".5" fx=".33" fy=".33" r=".66"><stop offset="0%" stop-color="#cecece"/><stop offset="40%" stop-color="#c6c6c6"/><stop offset="100%" stop-color="#9b898d"/></radialGradient><circle cx="0" cy="0" r="20.7" fill="url(#x0g9)" stroke="#787878" stroke-width="3.7"/></g>
    <g id="x0a11"><radialGradient id="x0g11" cx=".5" cy=".5" fx=".33" fy=".33" r=".66"><stop offset="0%" stop-color="#cecece"/><stop offset="40%" stop-color="#c5c5c5"/><stop offset="100%" stop-color="#9b888c"/></radialGradient><circle cx="0" cy="0" r="20.7" fill="url(#x0g11)" stroke="#777777" stroke-width="3.7"/></g>
    <g id="x0a13"><radialGradient id="x0g13" cx=".5" cy=".5" fx=".33" fy=".33" r=".66"><stop offset="0%" stop-color="#c8c8c8"/><stop offset="40%" stop-color="#bfbfbf"/><stop offset="100%" stop-color="#917c80"/></radialGradient><circle cx="0" cy="0" r="20.7" fill="url(#x0g13)" stroke="#5d5d5d" stroke-width="3.7"/></g>
    <g id="x0a15"><radialGradient id="x0g15" cx=".5" cy=".5" fx=".33" fy=".33" r=".66"><stop offset="0%" stop-color="#b8b8b8"/><stop offset="40%" stop-color="#acacac"/><stop offset="100%" stop-color="#6f545a"/></radialGradient><circle cx="0" cy="0" r="20.7" fill="url(#x0g15)" stroke="#0a0a0a" stroke-width="3.7"/></g>
    <g id="x0a17"><radialGradient id="x0g17" cx=".5" cy=".5" fx=".33" fy=".33" r=".66"><stop offset="0%" stop-color="#bababa"/><stop offset="40%" stop-color="#aeaeae"/><stop offset="100%" stop-color="#73595e"/></radialGradient><circle cx="0" cy="0" r="20.7" fill="url(#x0g17)" stroke="#151515" stroke-width="3.7"/></g>
    <g id="x0a19"><radialGradient id="x0g19" cx=".5" cy=".5" fx=".33" fy=".33" r=".66"><stop offset="0%" stop-color="#bcbcbc"/><stop offset="40%" stop-color="#b1b1b1"/><stop offset="100%" stop-color="#775e63"/></radialGradient><circle cx="0" cy="0" r="20.7" fill="url(#x0g19)" stroke="#1f1f1f" stroke-width="3.7"/></g>
    <g id="x0a21"><radialGradient id="x0g21" cx=".5" cy=".5" fx=".33" fy=".33" r=".66"><stop offset="0%" stop-color="#bababa"/><stop offset="40%" stop-color="#afafaf"/><stop offset="100%" stop-color="#745a60"/></radialGradient><circle cx="0" cy="0" r="20.7" fill="url(#x0g21)" stroke="#171717" stroke-width="3.7"/></g>
    <g id="x0a23"><radialGradient id="x0g23" cx=".5" cy=".5" fx=".33" fy=".33" r=".66"><stop offset="0%" stop-color="#b8b8b8"/><stop offset="40%" stop-color="#acacac"/><stop offset="100%" stop-color="#6f545a"/></radialGradient><circle cx="0" cy="0" r="20.7" fill="url(#x0g23)" stroke="#0c0c0c" stroke-width="3.7"/></g>
    <g id="x0a25"><radialGradient id="x0g25" cx=".5" cy=".5" fx=".33" fy=".33" r=".66"><stop offset="0%" stop-color="#cacaca"/><stop offset="40%" stop-color="#c1c1c1"/><stop offset="100%" stop-color="#948084"/></radialGradient><circle cx="0" cy="0" r="20.7" fill="url(#x0g25)" stroke="#666666" stroke-width="3.7"/></g>
    <g id="x0a26"><radialGradient id="x0g26" cx=".5" cy=".5" fx=".33" fy=".33" r=".66"><stop offset="0%" stop-color="#c7c7c7"/><stop offset="40%" stop-color="#bebebe"/><stop offset="100%" stop-color="#8f797e"/></radialGradient><circle cx="0" cy="0" r="20.7" fill="url(#x0g26)" stroke="#585858" stroke-width="3.7"/></g>
    <g id="x0a28"><radialGradient id="x0g28" cx=".5" cy=".5" fx=".33" fy=".33" r=".66"><stop offset="0%" stop-color="#cfcfcf"/><stop offset="40%" stop-color="#c7c7c7"/><stop offset="100%" stop-color="#9e8c8f"/></radialGradient><circle cx="0" cy="0" r="20.7" fill="url(#x0g28)" stroke="#7e7e7e" stroke-width="3.7"/></g>
    <g id="x0a30"><radialGradient id="x0g30" cx=".5" cy=".5" fx=".33" fy=".33" r=".66"><stop offset="0%" stop-color="#dcdcdc"/><stop offset="40%" stop-color="#d6d6d6"/><stop offset="100%" stop-color="#b8aaad"/></radialGradient><circle cx="0" cy="0" r="20.7" fill="url(#x0g30)" stroke="#b2b2b2" stroke-width="3.7"/></g>
    <g id="x0a32"><radialGradient id="x0g32" cx=".5" cy=".5" fx=".33" fy=".33" r=".66"><stop offset="0%" stop-color="#e0e0e0"/><stop offset="40%" stop-color="#dadada"/><stop offset="100%" stop-color="#c0b4b6"/></radialGradient><circle cx="0" cy="0" r="20.7" fill="url(#x0g32)" stroke="#b2b2b2" stroke-width="3.7"/></g>
    <g id="x0a34"><radialGradient id="x0g34" cx=".5" cy=".5" fx=".33" fy=".33" r=".66"><stop offset="0%" stop-color="#d6d6d6"/><stop offset="40%" stop-color="#cfcfcf"/><stop offset="100%" stop-color="#ac9c9f"/></radialGradient><circle cx="0" cy="0" r="20.7" fill="url(#x0g34)" stroke="#a0a0a0" stroke-width="3.7"/></g>
    <g id="x0a36"><radialGradient id="x0g36" cx=".5" cy=".5" fx=".33" fy=".33" r=".66"><stop offset="0%" stop-color="#bababa"/><stop offset="40%" stop-color="#afafaf"/><stop offset="100%" stop-color="#745a5f"/></radialGradient><circle cx="0" cy="0" r="20.7" fill="url(#x0g36)" stroke="#171717" stroke-width="3.7"/></g>
    <g id="x0a37"><radialGradient id="x0g37" cx=".5" cy=".5" fx=".33" fy=".33" r=".66"><stop offset="0%" stop-color="#b6b6b6"/><stop offset="40%" stop-color="#ababab"/><stop offset="100%" stop-color="#6c5157"/></radialGradient><circle cx="0" cy="0" r="20.7" fill="url(#x0g37)" stroke="#040404" stroke-width="3.7"/></g>
    <g id="x0a39"><radialGradient id="x0g39" cx=".5" cy=".5" fx=".33" fy=".33" r=".66"><stop offset="0%" stop-color="#b6b6b6"/><stop offset="40%" stop-color="#aaaaaa"/><stop offset="100%" stop-color="#6b4f55"/></radialGradient><circle cx="0" cy="0" r="20.7" fill="url(#x0g39)" stroke="#000000" stroke-width="3.7"/></g>
    <g id="x0a41"><radialGradient id="x0g41" cx=".5" cy=".5" fx=".33" fy=".33" r=".66"><stop offset="0%" stop-color="#b6b6b6"/><stop offset="40%" stop-color="#aaaaaa"/><stop offset="100%" stop-color="#6b4f55"/></radialGradient><circle cx="0" cy="0" r="20.7" fill="url(#x0g41)" stroke="#000000" stroke-width="3.7"/></g>
    <g id="x0a43"><radialGradient id="x0g43" cx=".5" cy=".5" fx=".33" fy=".33" r=".66"><stop offset="0%" stop-color="#b7b7b7"/><stop offset="40%" stop-color="#acacac"/><stop offset="100%" stop-color="#6e5359"/></radialGradient><circle cx="0" cy="0" r="20.7" fill="url(#x0g43)" stroke="#090909" stroke-width="3.7"/></g>
    <g id="x0a45"><radialGradient id="x0g45" cx=".5" cy=".5" fx=".33" fy=".33" r=".66"><stop offset="0%" stop-color="#bbbbbb"/><stop offset="40%" stop-color="#b0b0b0"/><stop offset="100%" stop-color="#765c61"/></radialGradient><circle cx="0" cy="0" r="20.7" fill="url(#x0g45)" stroke="#1b1b1b" stroke-width="3.7"/></g>
    <g id="x0a47"><radialGradient id="x0g47" cx=".5" cy=".5" fx=".33" fy=".33" r=".66"><stop offset="0%" stop-color="#c7c7c7"/><stop offset="40%" stop-color="#bebebe"/><stop offset="100%" stop-color="#8e797d"/></radialGradient><circle cx="0" cy="0" r="20.7" fill="url(#x0g47)" stroke="#575757" stroke-width="3.7"/></g>
    <g id="x0a49"><radialGradient id="x0g49" cx=".5" cy=".5" fx=".33" fy=".33" r=".66"><stop offset="0%" stop-color="#d5d5d5"/><stop offset="40%" stop-color="#cecece"/><stop offset="100%" stop-color="#ab9b9e"/></radialGradient><circle cx="0" cy="0" r="20.7" fill="url(#x0g49)" stroke="#9d9d9d" stroke-width="3.7"/></g>
    <g id="x0a52"><radialGradient id="x0g52" cx=".5" cy=".5" fx=".33" fy=".33" r=".66"><stop offset="0%" stop-color="#d6d6d6"/><stop offset="40%" stop-color="#d0d0d0"/><stop offset="100%" stop-color="#ad9ea1"/></radialGradient><circle cx="0" cy="0" r="20.7" fill="url(#x0g52)" stroke="#a4a4a4" stroke-width="3.7"/></g>
    <g id="x0a53"><radialGradient id="x0g53" cx=".5" cy=".5" fx=".33" fy=".33" r=".66"><stop offset="0%" stop-color="#cccccc"/><stop offset="40%" stop-color="#c4c4c4"/><stop offset="100%" stop-color="#998589"/></radialGradient><circle cx="0" cy="0" r="20.7" fill="url(#x0g53)" stroke="#717171" stroke-width="3.7"/></g>
    <g id="x0a54"><radialGradient id="x0g54" cx=".5" cy=".5" fx=".33" fy=".33" r=".66"><stop offset="0%" stop-color="#d7d7d7"/><stop offset="40%" stop-color="#d1d1d1"/><stop offset="100%" stop-color="#afa0a3"/></radialGradient><circle cx="0" cy="0" r="20.7" fill="url(#x0g54)" stroke="#a8a8a8" stroke-width="3.7"/></g>
    <g id="x0a55"><radialGradient id="x0g55" cx=".5" cy=".5" fx=".33" fy=".33" r=".66"><stop offset="0%" stop-color="#e5e5e5"/><stop offset="40%" stop-color="#e0e0e0"/><stop offset="100%" stop-color="#cac0c2"/></radialGradient><circle cx="0" cy="0" r="20.7" fill="url(#x0g55)" stroke="#b2b2b2" stroke-width="3.7"/></g>
    <g id="x0a56"><radialGradient id="x0g56" cx=".5" cy=".5" fx=".33" fy=".33" r=".66"><stop offset="0%" stop-color="#e4e4e4"/><stop offset="40%" stop-color="#e0e0e0"/><stop offset="100%" stop-color="#c9bec1"/></radialGradient><circle cx="0" cy="0" r="20.7" fill="url(#x0g56)" stroke="#b2b2b2" stroke-width="3.7"/></g>
    <g id="x0a57"><radialGradient id="x0g57" cx=".5" cy=".5" fx=".33" fy=".33" r=".66"><stop offset="0%" stop-color="#cdcdcd"/><stop offset="40%" stop-color="#c5c5c5"/><stop offset="100%" stop-color="#9b888c"/></radialGradient><circle cx="0" cy="0" r="20.7" fill="url(#x0g57)" stroke="#767676" stroke-width="3.7"/></g>
    <g id="x0a61"><radialGradient id="x0g61" cx=".5" cy=".5" fx=".33" fy=".33" r=".66"><stop offset="0%" stop-color="#bbbbbb"/><stop offset="40%" stop-color="#afafaf"/><stop offset="100%" stop-color="#755b60"/></radialGradient><circle cx="0" cy="0" r="20.7" fill="url(#x0g61)" stroke="#191919" stroke-width="3.7"/></g>
    <g id="x0a62"><radialGradient id="x0g62" cx=".5" cy=".5" fx=".33" fy=".33" r=".66"><stop offset="0%" stop-color="#b9b9b9"/><stop offset="40%" stop-color="#aeaeae"/><stop offset="100%" stop-color="#72585d"/></radialGradient><circle cx="0" cy="0" r="20.7" fill="url(#x0g62)" stroke="#121212" stroke-width="3.7"/></g>
    <g id="x0a63"><radialGradient id="x0g63" cx=".5" cy=".5" fx=".33" fy=".33" r=".66"><stop offset="0%" stop-color="#ffffff"/><stop offset="40%" stop-color="#ffffff"/><stop offset="100%" stop-color="#a98b90"/></radialGradient><circle cx="0" cy="0" r="10.9" fill="url(#x0g63)" stroke="#2d2d2d" stroke-width="3.7"/></g>
    <g id="x0a64"><radialGradient id="x0g64" cx=".5" cy=".5" fx=".33" fy=".33" r=".66"><stop offset="0%" stop-color="#ffffff"/><stop offset="40%" stop-color="#ffffff"/><stop offset="100%" stop-color="#ab8e93"/></radialGradient><circle cx="0" cy="0" r="10.9" fill="url(#x0g64)" stroke="#343434" stroke-width="3.7"/></g>
    <g id="x0a65"><radialGradient id="x0g65" cx=".5" cy=".5" fx=".33" fy=".33" r=".66"><stop offset="0%" stop-color="#ffffff"/><stop offset="40%" stop-color="#ffffff"/><stop offset="100%" stop-color="#b49b9f"/></radialGradient><circle cx="0" cy="0" r="10.9" fill="url(#x0g65)" stroke="#595959" stroke-width="3.7"/></g>
    <g id="x0a66"><radialGradient id="x0g66" cx=".5" cy=".5" fx=".33" fy=".33" r=".66"><stop offset="0%" stop-color="#f27567"/><stop offset="40%" stop-color="#ff3e3e"/><stop offset="100%" stop-color="#a9344b"/></radialGradient><circle cx="0" cy="0" r="18.6" fill="url(#x0g66)" stroke="#4a4a4a" stroke-width="3.7"/></g>
    <g id="x0a67"><radialGradient id="x0g67" cx=".5" cy=".5" fx=".33" fy=".33" r=".66"><stop offset="0%" stop-color="#cccccc"/><stop offset="40%" stop-color="#c3c3c3"/><stop offset="100%" stop-color="#978488"/></radialGradient><circle cx="0" cy="0" r="20.7" fill="url(#x0g67)" stroke="#6d6d6d" stroke-width="3.7"/></g>
    <g id="x0a73"><radialGradient id="x0g73" cx=".5" cy=".5" fx=".33" fy=".33" r=".66"><stop offset="0%" stop-color="#c8c8c8"/><stop offset="40%" stop-color="#bfbfbf"/><stop offset="100%" stop-color="#917c80"/></radialGradient><circle cx="0" cy="0" r="20.7" fill="url(#x0g73)" stroke="#5d5d5d" stroke-width="3.7"/></g>
  </defs>
  <polygon points="426.7,260.3 405.8,142.7 429.2,220.2" fill="#008080" fill-opacity="0.20" stroke="none"/>
  <polygon points="380.5,107.2 426.7,260.3 405.8,142.7" fill="#008080" fill-opacity="0.20" stroke="none"/>
  <polygon points="403.0,225.4 405.8,142.7 429.2,220.2" fill="#008080" fill-opacity="0.20" stroke="none"/>
  <polygon points="380.5,107.2 405.8,142.7 380.1,150.3" fill="#008080" fill-opacity="0.20" stroke="none"/>
  <polygon points="403.0,225.4 426.7,260.3 429.2,220.2" fill="#008080" fill-opacity="0.20" stroke="none"/>
  <polygon points="179.0,302.5 238.4,311.2 142.7,232.8" fill="#008080" fill-opacity="0.20" stroke="none"/>
  <polygon points="179.0,302.5 202.2,240.6 142.7,232.8" fill="#008080" fill-opacity="0.20" stroke="none"/>
  <polygon points="179.0,302.5 226.5,341.5 238.4,311.2" fill="#008080" fill-opacity="0.20" stroke="none"/>
  <polygon points="179.0,302.5 226.5,341.5 202.2,240.6" fill="#008080" fill-opacity="0.20" stroke="none"/>
  <polygon points="403.0,225.4 405.8,142.7 380.1,150.3" fill="#008080" fill-opacity="0.20" stroke="none"/>
  <polygon points="380.5,107.2 426.7,260.3 380.1,150.3" fill="#008080" fill-opacity="0.20" stroke="none"/>
  <polygon points="154.5,201.9 238.4,311.2 142.7,232.8" fill="#008080" fill-opacity="0.20" stroke="none"/>
  <polygon points="154.5,201.9 202.2,240.6 142.7,232.8" fill="#008080" fill-opacity="0.20" stroke="none"/>
  <polygon points="403.0,225.4 426.7,260.3 380.1,150.3" fill="#008080" fill-opacity="0.20" stroke="none"/>
  <polygon points="226.5,341.5 202.2,240.6 238.4,311.2" fill="#008080" fill-opacity="0.20" stroke="none"/>
  <polygon points="379.1,559.5 297.2,573.9 260.0,509.7" fill="#008080" fill-opacity="0.20" stroke="none"/>
  <polygon points="379.1,559.5 319.2,454.3 297.2,573.9" fill="#008080" fill-opacity="0.20" stroke="none"/>
  <polygon points="154.5,201.9 202.2,240.6 238.4,311.2" fill="#008080" fill-opacity="0.20" stroke="none"/>
  <polygon points="379.1,559.5 394.0,486.0 260.0,509.7" fill="#008080" fill-opacity="0.20" stroke="none"/>
  <polygon points="379.1,559.5 319.2,454.3 394.0,486.0" fill="#008080" fill-opacity="0.20" stroke="none"/>
  <polygon points="319.2,454.3 297.2,573.9 260.0,509.7" fill="#008080" fill-opacity="0.20" stroke="none"/>
  <polygon points="319.2,454.3 394.0,486.0 260.0,509.7" fill="#008080" fill-opacity="0.20" stroke="none"/>
  <polygon points="363.1,665.7 415.4,607.8 285.6,642.8" fill="#008080" fill-opacity="0.20" stroke="none"/>
  <polygon points="290.0,570.7 363.1,665.7 285.6,642.8" fill="#008080" fill-opacity="0.20" stroke="none"/>
  <polygon points="363.1,665.7 370.4,549.1 415.4,607.8" fill="#008080" fill-opacity="0.20" stroke="none"/>
  <polygon points="237.0,369.0 158.3,387.1 107.8,399.7" fill="#008080" fill-opacity="0.20" stroke="none"/>
  <polygon points="370.4,549.1 415.4,607.8 285.6,642.8" fill="#008080" fill-opacity="0.20" stroke="none"/>
  <polygon points="290.0,570.7 363.1,665.7 370.4,549.1" fill="#008080" fill-opacity="0.20" stroke="none"/>
  <polygon points="237.0,369.0 158.3,387.1 263.6,362.7" fill="#008080" fill-opacity="0.20" stroke="none"/>
  <polygon points="290.0,570.7 370.4,549.1 285.6,642.8" fill="#008080" fill-opacity="0.20" stroke="none"/>
  <polygon points="135.0,393.8 237.0,369.0 107.8,399.7" fill="#008080" fill-opacity="0.20" stroke="none"/>
  <polygon points="213.0,375.1 158.3,387.1 107.8,399.7" fill="#008080" fill-opacity="0.20" stroke="none"/>
  <polygon points="213.0,375.1 158.3,387.1 263.6,362.7" fill="#008080" fill-opacity="0.20" stroke="none"/>
  <polygon points="237.0,369.0 213.0,375.1 263.6,362.7" fill="#008080" fill-opacity="0.20" stroke="none"/>
  <polygon points="135.0,393.8 237.0,369.0 213.0,375.1" fill="#008080" fill-opacity="0.20" stroke="none"/>
  <polygon points="135.0,393.8 213.0,375.1 107.8,399.7" fill="#008080" fill-opacity="0.20" stroke="none"/>
  <line x1="263.6" y1="362.7" x2="158.3" y2="387.1" stroke="#008080" stroke-width="4.6" stroke-linecap="round"/>
  <use x="405.8" y="142.7" xlink:href="#x0a55"/>
  <line x1="416.4" y1="158.9" x2="429.0" y2="200.8" stroke="#838383" stroke-width="6.4" stroke-linecap="round"/>
  <line x1="405.9" y1="162.1" x2="418.5" y2="203.9" stroke="#838383" stroke-width="6.4" stroke-linecap="round" stroke-dasharray="6.4,12.8"/>
  <line x1="395.5" y1="137.7" x2="381.8" y2="118.5" stroke="#707070" stroke-width="6.4" stroke-linecap="round" stroke-dasharray="6.4,12.8"/>
  <line x1="404.4" y1="131.4" x2="390.7" y2="112.2" stroke="#707070" stroke-width="6.4" stroke-linecap="round"/>
  <use x="429.2" y="220.2" xlink:href="#x0a56"/>
  <line x1="434.1" y1="229.7" x2="432.7" y2="251.5" stroke="#6e6e6e" stroke-width="6.4" stroke-linecap="round"/>
  <line x1="423.1" y1="229.0" x2="421.8" y2="250.8" stroke="#6e6e6e" stroke-width="6.4" stroke-linecap="round" stroke-dasharray="6.4,12.8"/>
  <use x="179.0" y="302.5" xlink:href="#x0a32"/>
  <line x1="165.8" y1="289.0" x2="146.2" y2="251.3" stroke="#707070" stroke-width="6.4" stroke-linecap="round"/>
  <line x1="175.5" y1="284.0" x2="155.9" y2="246.2" stroke="#707070" stroke-width="6.4" stroke-linecap="round" stroke-dasharray="6.4,12.8"/>
  <line x1="193.3" y1="307.2" x2="219.1" y2="328.3" stroke="#676767" stroke-width="6.4" stroke-linecap="round" stroke-dasharray="6.4,12.8"/>
  <line x1="186.4" y1="315.6" x2="212.2" y2="336.8" stroke="#676767" stroke-width="6.4" stroke-linecap="round"/>
  <use x="142.7" y="232.8" xlink:href="#x0a30"/>
  <line x1="140.3" y1="223.8" x2="146.7" y2="207.1" stroke="#575757" stroke-width="6.4" stroke-linecap="round"/>
  <line x1="150.5" y1="227.7" x2="156.9" y2="211.0" stroke="#575757" stroke-width="6.4" stroke-linecap="round" stroke-dasharray="6.4,12.8"/>
  <use x="380.5" y="107.2" xlink:href="#x0a54"/>
  <line x1="385.9" y1="117.2" x2="385.7" y2="140.4" stroke="#4e4e4e" stroke-width="6.4" stroke-linecap="round" stroke-dasharray="6.4,12.8"/>
  <line x1="374.9" y1="117.1" x2="374.7" y2="140.3" stroke="#4e4e4e" stroke-width="6.4" stroke-linecap="round"/>
  <use x="426.7" y="260.3" xlink:href="#x0a52"/>
  <line x1="431.1" y1="278.4" x2="442.7" y2="326.4" stroke="#5a5a5a" stroke-width="9.1" stroke-linecap="round"/>
  <line x1="416.5" y1="255.1" x2="403.7" y2="236.2" stroke="#4c4c4c" stroke-width="6.4" stroke-linecap="round"/>
  <line x1="425.6" y1="249.0" x2="412.8" y2="230.1" stroke="#4c4c4c" stroke-width="6.4" stroke-linecap="round" stroke-dasharray="6.4,12.8"/>
  <use x="226.5" y="341.5" xlink:href="#x0a34"/>
  <line x1="224.1" y1="332.6" x2="230.6" y2="316.1" stroke="#484848" stroke-width="6.4" stroke-linecap="round" stroke-dasharray="6.4,12.8"/>
  <line x1="234.3" y1="336.6" x2="240.8" y2="320.1" stroke="#484848" stroke-width="6.4" stroke-linecap="round"/>
  <use x="447.1" y="344.4" xlink:href="#x0a49"/>
  <line x1="452.3" y1="348.5" x2="465.7" y2="359.0" stroke="#464646" stroke-width="9.1" stroke-linecap="round"/>
  <use x="154.5" y="201.9" xlink:href="#x0a28"/>
  <line x1="168.9" y1="206.6" x2="194.7" y2="227.5" stroke="#3c3c3c" stroke-width="6.4" stroke-linecap="round"/>
  <line x1="162.0" y1="215.1" x2="187.8" y2="236.0" stroke="#3c3c3c" stroke-width="6.4" stroke-linecap="round" stroke-dasharray="6.4,12.8"/>
  <use x="379.1" y="559.5" xlink:href="#x0a9"/>
  <line x1="361.7" y1="568.1" x2="316.5" y2="576.1" stroke="#434343" stroke-width="6.4" stroke-linecap="round"/>
  <line x1="359.8" y1="557.3" x2="314.6" y2="565.3" stroke="#434343" stroke-width="6.4" stroke-linecap="round" stroke-dasharray="6.4,12.8"/>
  <line x1="377.0" y1="542.0" x2="385.3" y2="501.3" stroke="#3c3c3c" stroke-width="6.4" stroke-linecap="round" stroke-dasharray="6.4,12.8"/>
  <line x1="387.8" y1="544.1" x2="396.0" y2="503.5" stroke="#3c3c3c" stroke-width="6.4" stroke-linecap="round"/>
  <line x1="372.5" y1="559.5" x2="345.6" y2="559.6" stroke="#2e2e2e" stroke-width="9.1" stroke-linecap="round"/>
  <use x="297.2" y="573.9" xlink:href="#x0a11"/>
  <line x1="284.1" y1="562.3" x2="263.6" y2="526.8" stroke="#3b3b3b" stroke-width="6.4" stroke-linecap="round"/>
  <line x1="293.6" y1="556.8" x2="273.1" y2="521.4" stroke="#3b3b3b" stroke-width="6.4" stroke-linecap="round" stroke-dasharray="6.4,12.8"/>
  <line x1="303.5" y1="571.7" x2="329.2" y2="562.5" stroke="#2e2e2e" stroke-width="9.1" stroke-linecap="round"/>
  <use x="537.0" y="488.2" xlink:href="#x0a57"/>
  <line x1="523.5" y1="479.7" x2="486.0" y2="455.8" stroke="#393939" stroke-width="9.1" stroke-linecap="round"/>
  <use x="380.1" y="150.3" xlink:href="#x0a53"/>
  <line x1="390.8" y1="166.5" x2="403.1" y2="207.0" stroke="#3f3f3f" stroke-width="6.4" stroke-linecap="round" stroke-dasharray="6.4,12.8"/>
  <line x1="380.3" y1="169.7" x2="392.6" y2="210.2" stroke="#3f3f3f" stroke-width="6.4" stroke-linecap="round"/>
  <use x="403.0" y="225.4" xlink:href="#x0a6"/>
  <line x1="404.9" y1="234.7" x2="413.6" y2="276.3" stroke="#2b2b2b" stroke-width="9.1" stroke-linecap="round"/>
  <use x="634.7" y="257.7" xlink:href="#x0a67"/>
  <line x1="652.2" y1="253.5" x2="700.3" y2="242.2" stroke="#393939" stroke-width="9.1" stroke-linecap="round"/>
  <line x1="626.8" y1="269.2" x2="607.4" y2="297.8" stroke="#333333" stroke-width="9.1" stroke-linecap="round"/>
  <use x="238.4" y="311.2" xlink:href="#x0a25"/>
  <line x1="225.3" y1="297.6" x2="205.6" y2="259.2" stroke="#353535" stroke-width="6.4" stroke-linecap="round" stroke-dasharray="6.4,12.8"/>
  <line x1="235.0" y1="292.6" x2="215.3" y2="254.2" stroke="#353535" stroke-width="6.4" stroke-linecap="round"/>
  <line x1="249.8" y1="319.0" x2="291.6" y2="347.5" stroke="#2c2c2c" stroke-width="9.1" stroke-linecap="round"/>
  <use x="470.6" y="362.8" xlink:href="#x0a5"/>
  <line x1="486.8" y1="356.7" x2="532.1" y2="339.9" stroke="#343434" stroke-width="11.0" stroke-linecap="round" stroke-dasharray="11.0,20.1"/>
  <line x1="471.0" y1="380.0" x2="472.1" y2="428.9" stroke="#333333" stroke-width="9.1" stroke-linecap="round"/>
  <line x1="462.8" y1="352.2" x2="427.1" y2="303.7" stroke="#282828" stroke-width="9.1" stroke-linecap="round"/>
  <use x="394.0" y="486.0" xlink:href="#x0a8"/>
  <line x1="410.5" y1="477.8" x2="455.9" y2="455.4" stroke="#323232" stroke-width="9.1" stroke-linecap="round"/>
  <line x1="375.3" y1="484.0" x2="333.5" y2="466.3" stroke="#303030" stroke-width="6.4" stroke-linecap="round" stroke-dasharray="6.4,12.8"/>
  <line x1="379.6" y1="474.0" x2="337.8" y2="456.2" stroke="#303030" stroke-width="6.4" stroke-linecap="round"/>
  <line x1="385.1" y1="497.5" x2="348.5" y2="545.0" stroke="#282828" stroke-width="9.1" stroke-linecap="round"/>
  <use x="717.8" y="238.0" xlink:href="#x0a73"/>
  <use x="260.0" y="509.7" xlink:href="#x0a13"/>
  <line x1="269.4" y1="493.4" x2="302.3" y2="462.6" stroke="#303030" stroke-width="6.4" stroke-linecap="round"/>
  <line x1="276.8" y1="501.4" x2="309.8" y2="470.6" stroke="#303030" stroke-width="6.4" stroke-linecap="round" stroke-dasharray="6.4,12.8"/>
  <line x1="272.2" y1="517.6" x2="321.6" y2="549.6" stroke="#272727" stroke-width="9.1" stroke-linecap="round"/>
  <use x="541.1" y="336.5" xlink:href="#x0a65"/>
  <line x1="549.5" y1="332.5" x2="586.1" y2="315.0" stroke="#2e2e2e" stroke-width="11.0" stroke-linecap="round" stroke-dasharray="11.0,20.1"/>
  <use x="202.2" y="240.6" xlink:href="#x0a26"/>
  <use x="472.5" y="447.3" xlink:href="#x0a47"/>
  <use x="319.2" y="454.3" xlink:href="#x0a7"/>
  <line x1="316.6" y1="437.1" x2="307.3" y2="375.5" stroke="#262626" stroke-width="9.1" stroke-linecap="round"/>
  <line x1="322.0" y1="470.9" x2="333.6" y2="538.6" stroke="#242424" stroke-width="9.1" stroke-linecap="round"/>
  <use x="600.3" y="308.1" xlink:href="#x0a66"/>
  <line x1="587.2" y1="300.4" x2="530.3" y2="266.6" stroke="#232323" stroke-width="11.0" stroke-linecap="round" stroke-dasharray="11.0,20.1"/>
  <use x="304.4" y="356.2" xlink:href="#x0a2"/>
  <line x1="322.2" y1="345.6" x2="395.8" y2="301.4" stroke="#1e1e1e" stroke-width="9.1" stroke-linecap="round"/>
  <line x1="291.4" y1="358.7" x2="248.7" y2="366.8" stroke="#151515" stroke-width="9.1" stroke-linecap="round"/>
  <use x="522.5" y="262.1" xlink:href="#x0a64"/>
  <line x1="513.1" y1="264.5" x2="439.6" y2="283.2" stroke="#1d1d1d" stroke-width="11.0" stroke-linecap="round" stroke-dasharray="11.0,20.1"/>
  <line x1="516.5" y1="255.0" x2="497.9" y2="233.4" stroke="#1b1b1b" stroke-width="11.0" stroke-linecap="round" stroke-dasharray="11.0,20.1"/>
  <use x="337.2" y="559.7" xlink:href="#x0a0"/>
  <line x1="342.4" y1="580.9" x2="359.0" y2="649.0" stroke="#161616" stroke-width="9.1" stroke-linecap="round"/>
  <line x1="326.9" y1="576.3" x2="293.7" y2="629.8" stroke="#141414" stroke-width="9.1" stroke-linecap="round"/>
  <line x1="352.8" y1="569.3" x2="403.2" y2="600.2" stroke="#131313" stroke-width="9.1" stroke-linecap="round"/>
  <line x1="327.8" y1="561.9" x2="297.4" y2="569.0" stroke="#0f0f0f" stroke-width="9.1" stroke-linecap="round"/>
  <line x1="343.8" y1="557.6" x2="365.2" y2="550.8" stroke="#0f0f0f" stroke-width="9.1" stroke-linecap="round"/>
  <use x="416.3" y="289.1" xlink:href="#x0a1"/>
  <line x1="434.7" y1="273.9" x2="484.3" y2="232.6" stroke="#1a1a1a" stroke-width="9.1" stroke-linecap="round"/>
  <line x1="405.6" y1="273.0" x2="379.0" y2="232.9" stroke="#141414" stroke-width="9.1" stroke-linecap="round"/>
  <line x1="423.3" y1="301.8" x2="440.6" y2="333.0" stroke="#121212" stroke-width="9.1" stroke-linecap="round"/>
  <use x="491.8" y="226.4" xlink:href="#x0a63"/>
  <use x="363.1" y="665.7" xlink:href="#x0a19"/>
  <line x1="344.2" y1="665.8" x2="301.4" y2="653.2" stroke="#0f0f0f" stroke-width="6.4" stroke-linecap="round"/>
  <line x1="347.3" y1="655.3" x2="304.5" y2="642.7" stroke="#0f0f0f" stroke-width="6.4" stroke-linecap="round" stroke-dasharray="6.4,12.8"/>
  <line x1="370.7" y1="649.0" x2="399.6" y2="617.0" stroke="#0e0e0e" stroke-width="6.4" stroke-linecap="round" stroke-dasharray="6.4,12.8"/>
  <line x1="378.8" y1="656.4" x2="407.8" y2="624.4" stroke="#0e0e0e" stroke-width="6.4" stroke-linecap="round"/>
  <use x="158.3" y="387.1" xlink:href="#x0a45"/>
  <line x1="175.0" y1="377.7" x2="217.9" y2="367.8" stroke="#0e0e0e" stroke-width="6.4" stroke-linecap="round"/>
  <line x1="177.4" y1="388.3" x2="220.3" y2="378.5" stroke="#0e0e0e" stroke-width="6.4" stroke-linecap="round" stroke-dasharray="6.4,12.8"/>
  <line x1="148.0" y1="395.3" x2="120.7" y2="402.1" stroke="#090909" stroke-width="6.4" stroke-linecap="round" stroke-dasharray="6.4,12.8"/>
  <line x1="145.4" y1="384.7" x2="118.1" y2="391.5" stroke="#090909" stroke-width="6.4" stroke-linecap="round"/>
  <use x="370.6" y="220.4" xlink:href="#x0a61"/>
  <line x1="353.1" y1="214.3" x2="338.1" y2="192.6" stroke="#0a0a0a" stroke-width="6.4" stroke-linecap="round"/>
  <line x1="362.1" y1="208.1" x2="347.1" y2="186.4" stroke="#0a0a0a" stroke-width="6.4" stroke-linecap="round"/>
  <line x1="371.2" y1="201.8" x2="356.1" y2="180.1" stroke="#0a0a0a" stroke-width="6.4" stroke-linecap="round"/>
  <use x="285.6" y="642.8" xlink:href="#x0a21"/>
  <line x1="281.1" y1="626.3" x2="283.6" y2="586.5" stroke="#090909" stroke-width="6.4" stroke-linecap="round"/>
  <line x1="292.0" y1="627.0" x2="294.5" y2="587.2" stroke="#090909" stroke-width="6.4" stroke-linecap="round" stroke-dasharray="6.4,12.8"/>
  <use x="237.0" y="369.0" xlink:href="#x0a36"/>
  <line x1="241.8" y1="362.2" x2="256.3" y2="358.8" stroke="#060606" stroke-width="6.4" stroke-linecap="round"/>
  <line x1="244.3" y1="372.9" x2="258.8" y2="369.5" stroke="#060606" stroke-width="6.4" stroke-linecap="round" stroke-dasharray="6.4,12.8"/>
  <use x="415.4" y="607.8" xlink:href="#x0a17"/>
  <line x1="401.0" y1="598.0" x2="376.1" y2="565.6" stroke="#080808" stroke-width="6.4" stroke-linecap="round" stroke-dasharray="6.4,12.8"/>
  <line x1="409.7" y1="591.3" x2="384.8" y2="558.9" stroke="#080808" stroke-width="6.4" stroke-linecap="round"/>
  <use x="446.1" y="342.8" xlink:href="#x0a62"/>
  <line x1="461.3" y1="344.9" x2="472.9" y2="360.3" stroke="#060606" stroke-width="6.4" stroke-linecap="round"/>
  <line x1="452.6" y1="351.5" x2="464.1" y2="366.9" stroke="#060606" stroke-width="6.4" stroke-linecap="round"/>
  <line x1="443.8" y1="358.0" x2="455.3" y2="373.4" stroke="#060606" stroke-width="6.4" stroke-linecap="round"/>
  <use x="339.5" y="175.3" xlink:href="#x0a3"/>
  <use x="290.0" y="570.7" xlink:href="#x0a23"/>
  <line x1="306.6" y1="560.6" x2="351.0" y2="548.6" stroke="#060606" stroke-width="6.4" stroke-linecap="round"/>
  <line x1="309.4" y1="571.2" x2="353.9" y2="559.2" stroke="#060606" stroke-width="6.4" stroke-linecap="round" stroke-dasharray="6.4,12.8"/>
  <use x="370.4" y="549.1" xlink:href="#x0a15"/>
  <use x="107.8" y="399.7" xlink:href="#x0a43"/>
  <line x1="112.9" y1="393.0" x2="127.6" y2="389.8" stroke="#010101" stroke-width="6.4" stroke-linecap="round" stroke-dasharray="6.4,12.8"/>
  <line x1="115.2" y1="403.7" x2="130.0" y2="400.5" stroke="#010101" stroke-width="6.4" stroke-linecap="round"/>
  <use x="470.0" y="374.7" xlink:href="#x0a4"/>
  <use x="263.6" y="362.7" xlink:href="#x0a37"/>
  <line x1="253.3" y1="370.9" x2="225.9" y2="377.6" stroke="#000000" stroke-width="6.4" stroke-linecap="round"/>
  <line x1="250.7" y1="360.2" x2="223.3" y2="366.9" stroke="#000000" stroke-width="6.4" stroke-linecap="round" stroke-dasharray="6.4,12.8"/>
  <use x="135.0" y="393.8" xlink:href="#x0a41"/>
  <line x1="151.6" y1="384.2" x2="193.8" y2="374.0" stroke="#000000" stroke-width="6.4" stroke-linecap="round" stroke-dasharray="6.4,12.8"/>
  <line x1="154.2" y1="394.8" x2="196.4" y2="384.7" stroke="#000000" stroke-width="6.4" stroke-linecap="round"/>
  <use x="213.0" y="375.1" xlink:href="#x0a39"/>
</svg>